<?xml version="1.0" encoding="utf-8"?>
<!-- Generator: Adobe Illustrator 16.0.0, SVG Export Plug-In . SVG Version: 6.00 Build 0)  -->
<!DOCTYPE svg PUBLIC "-//W3C//DTD SVG 1.1//EN" "http://www.w3.org/Graphics/SVG/1.1/DTD/svg11.dtd">
<svg version="1.1" id="Capa_1" xmlns="http://www.w3.org/2000/svg" xmlns:xlink="http://www.w3.org/1999/xlink" x="0px" y="0px"
	 width="150px" height="200px" viewBox="0 0 150 200" style="enable-background:new 0 0 150 200;" xml:space="preserve">
<style type="text/css">
<![CDATA[
	.st0{fill:#9A999E;}
	.st1{fill:#030104;}
]]>
</style>
<g>
	<polygon class="st0" points="53.693,170.976 43.057,171.293 42.85,169.909 21.328,164.392 2.531,163.658 1.965,151.501 
		0.166,135.857 0,134.322 5.505,125.788 4.385,111.971 0.678,92.828 6.75,90.615 12.697,82.552 14.911,71.404 6.639,62.482 
		1.383,50.698 8.202,33.604 7.275,13.243 27.76,25.691 50.955,31.985 58.673,44.295 90.94,46.84 107.04,59.633 133.692,76.798 
		133.692,76.854 142.448,77.725 143.665,91.142 150,107.518 144.398,118.029 128.963,116.313 126.708,127.684 139.35,136.784 
		137.274,146.881 126.362,162.331 144.688,170.2 143.721,180.063 129.475,181.335 120.567,185.774 106.362,179.094 96.681,186.757 
		81.052,178.997 70.747,182.081 	"/>
	<g>
		<g>
			<path class="st1" d="M53.51,114.397l5.065-9.22c0.748-1.385,1.144-2.951,1.144-4.532c0-5.263-4.282-9.545-9.545-9.545
				s-9.545,4.282-9.545,9.545c0,1.581,0.396,3.147,1.146,4.536l5.063,9.216c-4.471,0.283-11.664,1.267-11.664,4.658
				c0,4.639,13.464,4.772,15,4.772s15-0.134,15-4.772C65.173,115.664,57.98,114.681,53.51,114.397z M44.719,100.646
				c0-3.007,2.447-5.454,5.455-5.454s5.455,2.447,5.455,5.454c0,3.008-2.447,5.455-5.455,5.455S44.719,103.653,44.719,100.646z
				 M50.173,121.101c-6.705,0-11.101-1.226-12.131-2.045c0.93-0.74,4.611-1.809,10.25-2.01l1.284,2.338
				c0.119,0.218,0.348,0.354,0.597,0.354c0.25,0,0.478-0.136,0.597-0.354l1.285-2.338c5.638,0.201,9.319,1.27,10.249,2.01
				C61.274,119.875,56.878,121.101,50.173,121.101z"/>
		</g>
	</g>
</g>
</svg>
