<?xml version="1.0" encoding="utf-8"?>
<!-- Generator: Adobe Illustrator 16.0.0, SVG Export Plug-In . SVG Version: 6.00 Build 0)  -->
<!DOCTYPE svg PUBLIC "-//W3C//DTD SVG 1.1//EN" "http://www.w3.org/Graphics/SVG/1.1/DTD/svg11.dtd">
<svg version="1.1" id="Capa_1" xmlns="http://www.w3.org/2000/svg" xmlns:xlink="http://www.w3.org/1999/xlink" x="0px" y="0px"
	 width="150px" height="200px" viewBox="0 0 150 200" style="enable-background:new 0 0 150 200;" xml:space="preserve">
<style type="text/css">
<![CDATA[
	.st0{fill:#9A999E;}
	.st1{fill:#030104;}
]]>
</style>
<g>
	<path class="st0" d="M10.07,136.633l-7.412,1.161L0,137.658l0.064-1.193l4.53-5.02c1.121-2.137-0.071-6.73-0.08-8.877l2.098-5.49
		l-0.601-5.756l2.594-10.021l7.772-2.385l2.449-5.396l1.217-2.673l-0.416-0.192l0.864-13.151l4.955-3.738l3.162,8.421l4.603-0.128
		l-4.435-30.682l5.747,1.201l6.26,1.457l3.754-3.33l4.026-0.576l2.754,2.978l4.042,0.072l1.945-3.138l5.075-0.448l1.705-1.881
		l5.315-0.801l4.546-0.56l5.508,0.448l0.088-0.096l3.193,3.002l2.546,1.777l9.374,3.194l5.515,0.64l2.642-0.664l4.898,0.584
		l3.995,2.49l1.961-0.24l4.066,1.225l4.362,2.193l2.922-0.12l2.25,0.497l6.65-0.128l5.076-1.105l3.441-1.081l2.706-0.992
		l2.065-1.793l1.425-4.018l1.192-1.265L150,66.681l-3.979,7.012l-19.475,9.35L115.7,81.706l-0.257,11.775l4.803,5.916l-6.731-1.641
		l-6.06-0.84l-0.336-0.048l-1.353-5.123l-9.126-2.698l-4.05,0.04l-3.146-3.266l-8.309-5.051l-7.605,5.947l4.507,5.363l-5.195,2.145
		l-6.204-0.848l-4.418-7.573l-6.86-4.778l-8.108,11.046l6.195,9.589l-3.306,7.235l0.576,3.691l-4.002,4.555l1.44,6.043l-3.033,9.037
		c-1.682,3.441-7.341,4.859-8.277,8.301l0.881,7.9l0.536,0.192c0.032,0.704,0.896,3.771-0.264,4.571
		c-1.825,1.256-6.388-0.346-6.917-1.209c-1.344-2.217,0.529-10.334-0.384-10.639l-5.556-2.897l-6.964,3.538L10.07,136.633z"/>
	<g>
		<g>
			<path class="st1" d="M32.112,122.652l5.065-9.219c0.748-1.385,1.144-2.951,1.144-4.532c0-5.263-4.281-9.545-9.545-9.545
				s-9.546,4.282-9.546,9.545c0,1.581,0.396,3.147,1.146,4.536l5.063,9.215c-4.471,0.284-11.663,1.268-11.663,4.658
				c0,4.639,13.464,4.773,15,4.773c1.535,0,15-0.135,15-4.773C43.776,123.92,36.583,122.937,32.112,122.652z M23.321,108.901
				c0-3.007,2.447-5.454,5.455-5.454s5.454,2.447,5.454,5.454c0,3.008-2.446,5.454-5.454,5.454S23.321,111.909,23.321,108.901z
				 M28.776,129.355c-6.704,0-11.102-1.225-12.131-2.045c0.93-0.74,4.61-1.808,10.249-2.01l1.284,2.338
				c0.119,0.219,0.349,0.354,0.598,0.354s0.478-0.135,0.597-0.354l1.285-2.338c5.638,0.202,9.319,1.27,10.249,2.01
				C39.877,128.131,35.48,129.355,28.776,129.355z"/>
		</g>
	</g>
</g>
</svg>
