<?xml version="1.0" encoding="utf-8"?>
<!-- Generator: Adobe Illustrator 16.0.0, SVG Export Plug-In . SVG Version: 6.00 Build 0)  -->
<!DOCTYPE svg PUBLIC "-//W3C//DTD SVG 1.1//EN" "http://www.w3.org/Graphics/SVG/1.1/DTD/svg11.dtd">
<svg version="1.1" id="Capa_1" xmlns="http://www.w3.org/2000/svg" xmlns:xlink="http://www.w3.org/1999/xlink" x="0px" y="0px"
	 width="150px" height="200px" viewBox="0 0 150 200" style="enable-background:new 0 0 150 200;" xml:space="preserve">
<style type="text/css">
<![CDATA[
	.st0{fill:#9A999E;}
	.st1{fill:#030104;}
]]>
</style>
<g>
	<path class="st0" d="M16.551,79.585l1.254-0.985l1.273-0.51l2.882-0.113l3.264-2.627l0.415-1.004l-0.396-1.505l0.491-1.085
		l1.264-0.788l1.92-1.797l3.132-1.669l2.552-0.58l5.462,0.231l3.73,1.778l3.5,2.071l-1.34,0.905l-0.387,0.873l2.438-0.562
		l0.713,1.179l1.363,0.047l-0.265-1.028l-1.349-1.085l0.919-1.736l4.727,1.443l2.972,0.132l1.617,0.477l1.751-0.326l2.24-0.481
		l1.519-0.236l1.339,0.769l0.326,1.825l1.311,1.241l1.581,0.604l3.485,3.424l0.712,1.099l0.623,1.099l1.065,1.014l-0.372,1.184
		l0.985,0.91l1.42-0.986l3.925-0.208l0.976,0.576l0.708,1.174l1.184,1.009l1.985,1.057l2,1.486l-0.169,1.156l1.471-0.312
		l2.434,1.174l1.996,1.358l1.377,0.684l1.391,1.363l2.501,0.665l0.472,1.344l1.212,0.373l1.094-1.179l2.16,1.623l2.015,0.514
		l1.962-0.123l2.146-1.066l1.628-0.325l1.764,1.792l2.439-0.331l1.57,0.486l0.91-2.528l1.759-1.948l1.307-0.703l1.316-0.349
		l4.057,0.396l0.952-0.34l1.486,0.127l1.622,0.962l1.802,1.679l2.76,1.693l0.834,1.495l1.958-0.235l2.377,2.617l2.41,4.25
		l1.132,2.447l1.651,1.08l3.679,2.83l1.062,1l-0.052,0.057l-3.245-0.264l-2.68,0.33l-3.132,0.471l-1.004,1.109l-2.99,0.264
		l-1.146,1.85l-2.382-0.043l-1.623-1.754l-2.373,0.34l-2.211,1.961l-3.689-0.857l-3.386-0.707l2.612,18.078l-2.712,0.076
		l-1.863-4.963l-2.919,2.203l-0.51,7.75l0.245,0.113l-0.717,1.574l-6.32-4.354l-5.867-1.131l-4.26-2.74l1.566-4.227l0.113-4.117
		l-2.656-2.563l-4.301-0.244l-2.986-3l-3.155,0.994l-0.094,6.584c-0.693,2.043-4.255,0.832-5.42,1.977l-3.43-3.08l-8.083-4.951
		l-6.17-1.613l-6.142-1.283l-0.255-0.023l-2.985-0.297v-0.02l-9.089-5.854l-5.49-4.363l-11.004-0.867l-2.632-4.198l-7.91-2.146
		l-6.985-4.245L5.315,91.33l-4.481-2.061L0,83.892l2.877-1.179l0.915-2.052l0.481-2.882l3.91,2.33l1.358-0.113l-0.104,2.236
		l-0.996,0.259l1.538,0.481l0.769-1.174l0.972-1.297l2.807,0.01l-1.302-0.684l-1.533-0.481l-1.387,0.632l0.92-1.693l2.665,0.886
		L16.551,79.585z"/>
	<g>
		<g>
			<path class="st1" d="M86.071,84.154l5.064-9.22c0.748-1.385,1.144-2.951,1.144-4.532c0-5.263-4.281-9.545-9.545-9.545
				s-9.546,4.282-9.546,9.545c0,1.581,0.396,3.147,1.146,4.536l5.063,9.216c-4.471,0.284-11.663,1.267-11.663,4.658
				c0,4.639,13.464,4.773,15,4.773c1.535,0,15-0.134,15-4.773C97.734,85.42,90.541,84.438,86.071,84.154z M77.279,70.402
				c0-3.007,2.446-5.455,5.455-5.455c3.007,0,5.454,2.447,5.454,5.455c0,3.008-2.447,5.455-5.454,5.455
				C79.726,75.857,77.279,73.41,77.279,70.402z M82.734,90.857c-6.705,0-11.101-1.226-12.132-2.045
				c0.931-0.74,4.611-1.808,10.25-2.009l1.284,2.338c0.119,0.218,0.349,0.354,0.598,0.354s0.478-0.136,0.597-0.354l1.285-2.338
				c5.639,0.202,9.318,1.269,10.249,2.009C93.835,89.631,89.438,90.857,82.734,90.857z"/>
		</g>
	</g>
</g>
</svg>
