<?xml version="1.0" encoding="utf-8"?>
<!-- Generator: Adobe Illustrator 16.0.0, SVG Export Plug-In . SVG Version: 6.00 Build 0)  -->
<!DOCTYPE svg PUBLIC "-//W3C//DTD SVG 1.1//EN" "http://www.w3.org/Graphics/SVG/1.1/DTD/svg11.dtd">
<svg version="1.1" id="Capa_1" xmlns="http://www.w3.org/2000/svg" xmlns:xlink="http://www.w3.org/1999/xlink" x="0px" y="0px"
	 width="150px" height="200px" viewBox="0 0 150 200" style="enable-background:new 0 0 150 200;" xml:space="preserve">
<style type="text/css">
<![CDATA[
	.st0{fill:#9A999E;}
	.st1{fill:#030104;}
]]>
</style>
<g>
	<polygon class="st0" points="37.844,118.896 38.907,120.131 34.436,123.984 32.237,123.24 28.749,124.596 25.394,122.762 
		23.387,125.546 20.357,120.391 21.58,118.15 15.88,108.219 12.099,109.335 8.943,109.049 9.349,106.61 7.807,103.668 
		3.947,100.884 1.489,93.603 4.094,87.457 5.967,84.599 2.897,80.42 2.711,73.597 0.499,66.116 0,61.346 2.665,59.272 
		10.937,70.767 20.883,73.278 27.905,76.946 35.545,77.132 39.578,73.172 43.458,69.498 48.361,66.847 53.558,67.491 55.231,69.186 
		58.075,69.591 64.991,66.741 68.998,67.491 73.383,77.729 78.678,78.886 78.232,83.902 83.461,87.291 84.432,89.603 85.143,96.333 
		90.418,94.386 96.298,85.536 100.896,81.311 105.359,83.417 110.243,79.51 118.163,76.255 126.122,75.849 131.165,76.261 
		134.792,79.756 134.984,87.144 136.021,96.074 130.653,101.275 128.926,106.977 129.889,113.108 134.64,117.5 142.027,120.709 
		147.635,121.5 149.383,123.672 150,128.402 147.702,133.313 148.393,139.85 146.845,139.983 144.553,140.016 142.193,138.953 
		137.031,134.808 135.756,132.363 133.723,131.16 131.523,130.07 128.992,129.439 126.979,129.473 123.97,130.077 122.315,131.731 
		122.455,133.412 124.029,137.199 122.74,140.694 120.84,140.728 115.672,139.405 113.957,138.396 111.08,136.004 110.376,133.885 
		110.442,131.133 107.931,128.264 105.466,128.131 95.461,125.771 90.072,125.705 87.734,125.267 82.026,125.719 74.565,124.723 
		65.118,125.506 64.135,120.756 63.104,120.988 62.68,115.029 60.999,112.889 54.361,114.285 49.743,112.764 44.734,112.598 
		43.499,105.801 38.535,105.408 33.154,114.424 	"/>
	<polygon class="st0" points="62.799,121.061 63.955,123.228 63.311,124.636 58.201,126.376 55.644,128.023 52.733,131.16 
		46.694,134.463 43.791,135.119 42.402,135.433 38.814,135.552 43.227,125.147 38.907,120.131 37.844,118.896 33.154,114.424 
		38.535,105.408 43.499,105.801 44.734,112.598 49.743,112.764 54.361,114.285 60.999,112.889 62.68,115.029 63.104,120.988 	"/>
	<g>
		<g>
			<path class="st1" d="M68.2,115.913l5.064-9.22c0.748-1.385,1.144-2.951,1.144-4.531c0-5.264-4.281-9.546-9.545-9.546
				s-9.546,4.282-9.546,9.546c0,1.58,0.396,3.146,1.146,4.535l5.063,9.216c-4.471,0.284-11.663,1.267-11.663,4.657
				c0,4.639,13.464,4.773,15,4.773c1.535,0,15-0.135,15-4.773C79.863,117.18,72.67,116.197,68.2,115.913z M59.408,102.162
				c0-3.008,2.446-5.455,5.455-5.455c3.007,0,5.454,2.447,5.454,5.455s-2.447,5.454-5.454,5.454
				C61.854,107.616,59.408,105.17,59.408,102.162z M64.863,122.616c-6.705,0-11.101-1.226-12.132-2.046
				c0.931-0.74,4.611-1.807,10.25-2.009l1.284,2.338c0.119,0.218,0.349,0.354,0.598,0.354s0.478-0.136,0.597-0.354l1.285-2.338
				c5.639,0.202,9.318,1.269,10.249,2.009C75.964,121.391,71.567,122.616,64.863,122.616z"/>
		</g>
	</g>
</g>
</svg>
