<?xml version="1.0" encoding="utf-8"?>
<!-- Generator: Adobe Illustrator 16.0.0, SVG Export Plug-In . SVG Version: 6.00 Build 0)  -->
<!DOCTYPE svg PUBLIC "-//W3C//DTD SVG 1.1//EN" "http://www.w3.org/Graphics/SVG/1.1/DTD/svg11.dtd">
<svg version="1.1" id="Capa_1" xmlns="http://www.w3.org/2000/svg" xmlns:xlink="http://www.w3.org/1999/xlink" x="0px" y="0px"
	 width="150px" height="200px" viewBox="0 0 150 200" style="enable-background:new 0 0 150 200;" xml:space="preserve">
<style type="text/css">
<![CDATA[
	.st0{fill:#9A999E;}
	.st1{fill:#030104;}
]]>
</style>
<g>
	<path class="st0" d="M10.07,145.294l-7.412,1.161L0,146.319l0.064-1.193l4.531-5.02c1.121-2.137-0.072-6.73-0.08-8.877l2.097-5.49
		l-0.6-5.756l2.593-10.021l7.772-2.385l2.45-5.396l1.216-2.673l-0.416-0.192l0.865-13.151l4.955-3.738l3.162,8.421l4.603-0.128
		l-4.435-30.682l5.748,1.201l6.259,1.457l3.754-3.33l4.026-0.576l2.754,2.978l4.042,0.072l1.945-3.138l5.075-0.448l1.705-1.881
		l5.315-0.801l4.546-0.56l5.508,0.448l0.088-0.096l3.193,3.002l2.545,1.777l9.375,3.194l5.514,0.64l2.643-0.664l4.898,0.584
		l3.994,2.49l1.961-0.24l4.066,1.225l4.363,2.193l2.922-0.12l2.25,0.497l6.65-0.128l5.076-1.105l3.441-1.081l2.705-0.992
		l2.066-1.793l1.424-4.018l1.193-1.265L150,75.342l-3.979,7.012l-19.475,9.35l-10.848-1.337l-0.256,11.775l4.803,5.915l-6.732-1.642
		l-6.059-0.84l-0.336-0.048l-1.354-5.123l-9.125-2.698l-4.051,0.04l-3.145-3.266l-8.309-5.051l-7.605,5.947l4.506,5.363
		l-5.195,2.146l-6.204-0.849l-4.418-7.573l-6.86-4.778l-8.108,11.046l6.195,9.589l-3.306,7.236l0.577,3.691l-4.002,4.555
		l1.441,6.043l-3.034,9.037c-1.681,3.441-7.34,4.859-8.277,8.301l0.88,7.9l0.537,0.192c0.032,0.704,0.896,3.771-0.264,4.571
		c-1.825,1.256-6.388-0.346-6.917-1.209c-1.344-2.217,0.529-10.334-0.384-10.639l-5.555-2.897l-6.964,3.538L10.07,145.294z"/>
	<g>
		<g>
			<path class="st1" d="M101.801,60.985l5.066-9.22c0.748-1.385,1.143-2.951,1.143-4.532c0-5.263-4.281-9.545-9.545-9.545
				s-9.545,4.282-9.545,9.545c0,1.581,0.395,3.147,1.146,4.536l5.063,9.216c-4.471,0.284-11.664,1.267-11.664,4.658
				c0,4.639,13.465,4.773,15,4.773s15-0.134,15-4.773C113.465,62.252,106.271,61.269,101.801,60.985z M93.01,47.234
				c0-3.007,2.447-5.455,5.455-5.455s5.455,2.447,5.455,5.455c0,3.008-2.447,5.455-5.455,5.455S93.01,50.242,93.01,47.234z
				 M98.465,67.688c-6.705,0-11.102-1.226-12.131-2.045c0.93-0.74,4.611-1.808,10.25-2.009l1.283,2.338
				c0.119,0.218,0.35,0.354,0.598,0.354c0.25,0,0.479-0.136,0.598-0.354l1.285-2.338c5.637,0.202,9.318,1.269,10.248,2.009
				C109.566,66.463,105.17,67.688,98.465,67.688z"/>
		</g>
	</g>
</g>
</svg>
