<?xml version="1.0" encoding="utf-8"?>
<!-- Generator: Adobe Illustrator 16.0.0, SVG Export Plug-In . SVG Version: 6.00 Build 0)  -->
<!DOCTYPE svg PUBLIC "-//W3C//DTD SVG 1.1//EN" "http://www.w3.org/Graphics/SVG/1.1/DTD/svg11.dtd">
<svg version="1.1" id="Capa_1" xmlns="http://www.w3.org/2000/svg" xmlns:xlink="http://www.w3.org/1999/xlink" x="0px" y="0px"
	 width="150px" height="200px" viewBox="0 0 150 200" style="enable-background:new 0 0 150 200;" xml:space="preserve">
<style type="text/css">
<![CDATA[
	.st0{fill:#9A999E;}
	.st1{fill:#030104;}
]]>
</style>
<g>
	<path class="st0" d="M35.734,75.872l-2.489-4.208l4.636-0.139l7.433,4.841l4.491-1.344l6.813,3.382l4.22-3.34l6.19,2.911
		l3.882-1.935l6.209-0.555l0.423-4.298l-7.987-3.431l4.756-6.733l0.904-4.4l-5.51-3.967l0.982-4.955l6.728,0.748l2.441-4.582
		l-2.761-7.138l-0.53-5.847l0.325,0.029l7.849,1.641l7.886,2.062l10.331,6.329l4.383,3.937c1.489-1.465,6.041,0.084,6.927-2.526
		l0.121-8.415l4.032-1.271l3.815,3.834l5.498,0.313l3.394,3.273l-0.145,5.263l-2.001,5.4l5.443,3.503l7.499,1.446L150,61.266
		l-1.845,4.063l-5.854,1.796l-1.953,7.548l0.452,4.334l-1.58,4.135c0.007,1.616,0.904,5.076,0.062,6.686l-3.412,3.779l-0.049,0.898
		l-4.521-0.229l-5.503,6.624l-2.671,3.347l-0.669,4.84l-0.151,4.215l-0.855,2.52l0.76,4.984l-1.936,2.707l1.525,3.508l-0.524,2.4
		l1.579,1.537l0.235,3.695l-5.884-1.725l-3.46-3.508l-2.918,0.277c-0.367,0.566-0.428,7.457-1.242,8.113l-9.097,5.962l-6.153,0.073
		l-7.638,8.963l-4.637,0.543l-11.954,1.67l-3.152,2.592l-0.663,8.259l0.061,0.766l-3.485,0.265l-0.006-0.035l-5.189,1.29
		l-6.053-0.085l-5.196,1.043l-5.081-5.354l-7.843-2.314l-7.458-4.238l0.121-7.607l-10.472-8.909l-6.13-1.507l-6.143-2.773
		l0.091-0.199l1.561-13.094L0,117.069l2.954-7.283l-0.182-6.348l2.454-5.684l5.811-7.035l5.449-1.604l1.833,2.833l5.269-1.507
		l4.256-2.671l4.642-3.128l1.857-5.661L35.734,75.872z"/>
	<g>
		<g>
			<path class="st1" d="M120.244,69.982l5.064-9.22c0.748-1.385,1.143-2.951,1.143-4.531c0-5.264-4.281-9.546-9.545-9.546
				s-9.546,4.282-9.546,9.546c0,1.58,0.396,3.146,1.146,4.535l5.063,9.216c-4.471,0.284-11.663,1.267-11.663,4.657
				c0,4.639,13.464,4.773,15,4.773c1.535,0,15-0.135,15-4.773C131.906,71.249,124.713,70.267,120.244,69.982z M111.451,56.231
				c0-3.008,2.446-5.455,5.455-5.455c3.008,0,5.455,2.447,5.455,5.455s-2.447,5.454-5.455,5.454
				C113.897,61.686,111.451,59.239,111.451,56.231z M116.906,76.686c-6.705,0-11.101-1.226-12.132-2.046
				c0.931-0.74,4.611-1.807,10.25-2.009l1.284,2.338c0.119,0.218,0.35,0.354,0.598,0.354c0.25,0,0.479-0.136,0.598-0.354
				l1.285-2.338c5.639,0.202,9.318,1.269,10.248,2.009C128.008,75.46,123.611,76.686,116.906,76.686z"/>
		</g>
	</g>
</g>
</svg>
