<?xml version="1.0" encoding="utf-8"?>
<!-- Generator: Adobe Illustrator 16.0.0, SVG Export Plug-In . SVG Version: 6.00 Build 0)  -->
<!DOCTYPE svg PUBLIC "-//W3C//DTD SVG 1.1//EN" "http://www.w3.org/Graphics/SVG/1.1/DTD/svg11.dtd">
<svg version="1.1" id="Capa_1" xmlns="http://www.w3.org/2000/svg" xmlns:xlink="http://www.w3.org/1999/xlink" x="0px" y="0px"
	 width="150px" height="200px" viewBox="0 0 150 200" style="enable-background:new 0 0 150 200;" xml:space="preserve">
<style type="text/css">
<![CDATA[
	.st0{fill:#9A999E;}
	.st1{fill:#030104;}
]]>
</style>
<g>
	<polygon class="st0" points="0,142.503 10.037,140.505 14.621,139.591 16.868,135.888 21.722,132.105 29.196,128.786 
		33.091,128.153 38.093,129.317 36.794,119.517 36.445,116.876 39.177,111.851 39.075,108.216 44.269,97.671 43.896,93.776 
		38.951,84.812 36.772,82.441 37.359,76.321 39.899,71.297 39.437,68.543 36.173,68.441 34.57,65.822 34.627,61.43 33.667,60.809 
		33.543,60.131 31.657,59.093 30.088,53.369 28.756,50.354 25.47,48.209 23.472,44.133 19.092,38.285 18.132,32.324 18.448,24.512 
		17.545,20.379 18.606,17.388 18.73,17.06 18.776,17.083 38.194,23.111 46.764,21.384 61.994,28.858 77.777,26.103 88.299,23.348 
		99.127,21.136 105.201,24.782 111.625,24.646 113.139,37.314 127.77,44.969 127.758,44.991 140.02,51.122 146.5,52.229 150,53.064 
		146.309,63.846 134.182,69.186 132.127,84.597 132.545,96.395 126.99,107.866 122.848,116.39 120.014,131.507 119.867,141.487 
		108.51,149.368 108.26,149.706 110.768,159.743 113.16,164.621 113.07,164.666 110.473,166.472 104.049,169.916 84.867,163.3 
		79.211,162.577 74.796,171.091 69.197,174.082 64.365,180.766 62.762,188.025 61.159,186.32 58.731,185.146 53.673,185.384 
		49.439,184.356 46.425,182.538 38.657,181.985 35.067,180.179 32.899,177.954 31.545,173.8 29.366,171.294 27.04,170.21 
		26.284,167.082 25.076,168.425 24.195,167.624 21.79,169.307 20.243,166.585 16.585,165.366 14.214,162.159 12.499,156.898 
		8.761,149.955 3.444,144.671 	"/>
	<g>
		<g>
			<path class="st1" d="M27.838,35.271l5.065-9.22c0.748-1.385,1.144-2.951,1.144-4.532c0-5.263-4.282-9.545-9.545-9.545
				c-5.263,0-9.545,4.282-9.545,9.545c0,1.581,0.396,3.147,1.146,4.536l5.063,9.216c-4.471,0.284-11.664,1.267-11.664,4.658
				c0,4.639,13.464,4.773,15,4.773s15-0.134,15-4.773C39.501,36.538,32.309,35.555,27.838,35.271z M19.047,21.52
				c0-3.007,2.447-5.455,5.455-5.455c3.008,0,5.455,2.447,5.455,5.455c0,3.008-2.447,5.455-5.455,5.455
				C21.494,26.975,19.047,24.528,19.047,21.52z M24.501,41.975c-6.704,0-11.101-1.226-12.131-2.045
				c0.93-0.74,4.611-1.808,10.25-2.009l1.284,2.338c0.119,0.218,0.348,0.354,0.597,0.354c0.25,0,0.478-0.136,0.597-0.354
				l1.285-2.338c5.638,0.202,9.319,1.269,10.249,2.009C35.603,40.749,31.206,41.975,24.501,41.975z"/>
		</g>
	</g>
</g>
</svg>
